
<svg xmlns="http://www.w3.org/2000/svg" version="1.1" xmlns:xlink="http://www.w3.org/1999/xlink" preserveAspectRatio="none" x="0px" y="0px" width="1000px" height="1000px" viewBox="0 0 1000 1000">
<defs>
<g id="Layer0_0_FILL">
<path fill="#ffffff" stroke="none" d="
M 971.85 495.15
Q 971.85 299.2 833.35 160.65 694.85 22.2 499 22.2 303.05 22.2 164.55 160.65 26.05 299.2 26.05 495.15 26.05 691 164.55 829.5 303.05 968 499 968 694.85 968 833.35 829.5 971.85 691 971.85 495.15
M 658.15 342.25
L 658.15 613.9
Q 658.15 694.85 617.1 743.6 576.45 792.05 498.45 792.05 420.5 792.05 379.45 743.6 338.8 694.85 338.8 613.9
L 338.8 342.25
Q 338.8 258.35 378 210.65 417.55 162.95 498.45 162.95 577.95 162.95 617.85 211 658.15 259.05 658.15 342.25
M 455.25 278.3
Q 444.5 303.8 444.5 343.7
L 444.5 612.4
Q 444.5 649.75 456.35 675.6 468.15 701.85 498.45 701.85 552.05 701.85 552.05 612.4
L 552.05 343.7
Q 552.05 303.8 541.35 278.3 530.25 252.8 498.45 252.8 465.95 252.8 455.25 278.3 Z"/>
</g>
</defs>

<g transform="matrix( 1, 0, 0, 1, 0,0) ">
<use xlink:href="#Layer0_0_FILL"/>
</g>
</svg>
