<?xml version="1.0" encoding="UTF-8"?>
<svg id="Layer_1" data-name="Layer 1" xmlns="http://www.w3.org/2000/svg" viewBox="0 0 1094 1083">
  <defs>
    <style>
      .cls-1 {
        fill: #fff;
      }
    </style>
  </defs>
  <path class="cls-1" d="M1019.9,535.15c0-130.63-46.17-242.13-138.5-334.5-92.33-92.3-203.78-138.45-334.35-138.45-130.63,0-242.12,46.15-334.45,138.45-92.33,92.37-138.5,203.87-138.5,334.5,0,130.57,46.17,242.02,138.5,334.35,92.33,92.33,203.82,138.5,334.45,138.5s242.02-46.17,334.35-138.5c92.33-92.33,138.5-203.78,138.5-334.35M881.58,406.25v271.65c0,53.97-13.68,97.2-41.05,129.7-27.1,32.3-66.65,48.45-118.65,48.45s-91.63-16.15-119-48.45c-27.1-32.5-40.65-75.73-40.65-129.7v-271.65c0-55.93,13.07-99.8,39.2-131.6,26.37-31.8,66.52-47.7,120.45-47.7s92.8,16.02,119.4,48.05c26.87,32.03,40.3,75.78,40.3,131.25M678.68,342.3c-7.17,17-10.75,38.8-10.75,65.4v268.7c0,24.9,3.95,45.97,11.85,63.2,7.87,17.5,21.9,26.25,42.1,26.25,35.73,0,53.6-29.82,53.6-89.45v-268.7c0-26.6-3.57-48.4-10.7-65.4-7.4-17-21.7-25.5-42.9-25.5s-36.07,8.5-43.2,25.5ZM257.47,366.82c-25.87,7.4-39.05,11.35-39.55,11.85v-78c20.2-6.9,42.25-16.52,66.15-28.85,24.13-12.57,41.75-25.37,52.85-38.4h80.95v613.15h-105.35v-497.5c-4.93,3.7-23.28,9.62-55.05,17.75Z"/>
</svg>