<?xml version="1.0" encoding="UTF-8"?>
<svg id="Layer_1" data-name="Layer 1" xmlns="http://www.w3.org/2000/svg" viewBox="0 0 1094 1083">
  <defs>
    <style>
      .cls-1 {
        fill: #fff;
      }
    </style>
  </defs>
  <path class="cls-1" d="M1019.9,540.05c0-130.63-46.17-242.13-138.5-334.5-92.33-92.3-203.78-138.45-334.35-138.45-130.63,0-242.12,46.15-334.45,138.45-92.33,92.37-138.5,203.87-138.5,334.5,0,130.57,46.17,242.02,138.5,334.35,92.33,92.33,203.82,138.5,334.45,138.5s242.02-46.17,334.35-138.5c92.33-92.33,138.5-203.78,138.5-334.35M271.47,371.72c-25.87,7.4-39.05,11.35-39.55,11.85v-78c20.2-6.9,42.25-16.52,66.15-28.85,24.13-12.57,41.75-25.37,52.85-38.4h80.95v613.15h-105.35v-497.5c-4.93,3.7-23.28,9.62-55.05,17.75ZM624.01,366.82c-25.87,7.4-39.05,11.35-39.55,11.85v-78c20.2-6.9,42.25-16.52,66.15-28.85,24.13-12.57,41.75-25.37,52.85-38.4h80.95v613.15h-105.35v-497.5c-4.93,3.7-23.28,9.62-55.05,17.75Z"/>
</svg>