<?xml version="1.0" encoding="UTF-8"?>
<svg id="Layer_1" data-name="Layer 1" xmlns="http://www.w3.org/2000/svg" viewBox="0 0 1094 1083">
  <defs>
    <style>
      .cls-1 {
        fill: #fff;
      }
    </style>
  </defs>
  <path class="cls-1" d="M1019.9,540.05c0-130.63-46.17-242.13-138.5-334.5-92.33-92.3-203.78-138.45-334.35-138.45-130.63,0-242.12,46.15-334.45,138.45-92.33,92.37-138.5,203.87-138.5,334.5,0,130.57,46.17,242.02,138.5,334.35,92.33,92.33,203.82,138.5,334.45,138.5s242.02-46.17,334.35-138.5c92.33-92.33,138.5-203.78,138.5-334.35M271.47,371.72c-25.87,7.4-39.05,11.35-39.55,11.85v-78c20.2-6.9,42.25-16.52,66.15-28.85,24.13-12.57,41.75-25.37,52.85-38.4h80.95v613.15h-105.35v-497.5c-4.93,3.7-23.28,9.62-55.05,17.75ZM851.9,762.68v83.9h-304.9v-74.3l151.55-233.95c2.47-3.93,4.68-7.38,6.65-10.35,1.97-2.97,3.68-5.8,5.15-8.5,18.23-28.1,31.67-51.5,40.3-70.2,8.63-18.73,12.95-39.93,12.95-63.6,0-47.57-16.63-71.35-49.9-71.35-22.93,0-38.83,8.88-47.7,26.65-9.1,17.73-13.65,41.38-13.65,70.95v25.85h-103.15v-27.35c0-57.4,13.07-102.37,39.2-134.9,25.87-32.53,66.52-48.8,121.95-48.8,51.5,0,90.68,13.93,117.55,41.8,26.6,28.07,39.9,67.37,39.9,117.9,0,31.3-5.42,59.02-16.25,83.15-10.83,24.17-27.58,53.98-50.25,89.45l-135.3,203.65h185.9Z"/>
</svg>