
<svg xmlns="http://www.w3.org/2000/svg" version="1.1" xmlns:xlink="http://www.w3.org/1999/xlink" preserveAspectRatio="none" x="0px" y="0px" width="1000px" height="1000px" viewBox="0 0 1000 1000">
<defs>
<g id="Layer0_0_FILL">
<path fill="#ffffff" stroke="none" d="
M 971.85 495.15
Q 971.85 299.2 833.35 160.65 694.85 22.2 499 22.2 303.05 22.2 164.55 160.65 26.05 299.2 26.05 495.15 26.05 691 164.55 829.5 303.05 968 499 968 694.85 968 833.35 829.5 971.85 691 971.85 495.15
M 657.65 698.9
L 657.65 782.8 352.75 782.8 352.75 708.5 504.3 474.55
Q 508 468.65 510.95 464.2 513.9 459.75 516.1 455.7 543.45 413.55 556.4 385.5 569.35 357.4 569.35 321.9 569.35 250.55 519.45 250.55 485.05 250.55 471.75 277.2 458.1 303.8 458.1 348.15
L 458.1 374 354.95 374 354.95 346.65
Q 354.95 260.55 394.15 211.75 432.95 162.95 516.1 162.95 593.35 162.95 633.65 204.75 673.55 246.85 673.55 322.65 673.55 369.6 657.3 405.8 641.05 442.05 607.05 495.25
L 471.75 698.9 657.65 698.9 Z"/>
</g>
</defs>

<g transform="matrix( 1, 0, 0, 1, 0,0) ">
<use xlink:href="#Layer0_0_FILL"/>
</g>
</svg>
