
<svg xmlns="http://www.w3.org/2000/svg" version="1.1" xmlns:xlink="http://www.w3.org/1999/xlink" preserveAspectRatio="none" x="0px" y="0px" width="1000px" height="1000px" viewBox="0 0 1000 1000">
<defs>
<g id="Layer0_0_FILL">
<path fill="#ffffff" stroke="none" d="
M 971.85 495.15
Q 971.85 299.2 833.35 160.65 694.85 22.2 499 22.2 303.05 22.2 164.55 160.65 26.05 299.2 26.05 495.15 26.05 691 164.55 829.5 303.05 968 499 968 694.85 968 833.35 829.5 971.85 691 971.85 495.15
M 653.15 509.8
Q 674.6 545.65 674.6 607.75 674.6 695.35 636.55 744.5 598.1 794.05 514.95 794.05 355.25 794.05 355.25 618.1
L 355.25 597.05 458.75 597.05 458.75 615.15
Q 460.6 662.1 472.05 684.25 483.9 706.05 515.7 706.05 548.2 706.05 559.65 683.15 571.1 659.85 571.1 610 571.1 560.1 555.2 534.2 539.35 508.35 499.05 506.1
L 481.65 506.1 481.65 422.2 497.55 422.2
Q 538.2 421.5 554.85 400.4 571.1 379 571.1 330.55 571.1 289.15 558.55 268.45 546 248.15 514.2 248.15 483.15 248.15 471.7 269.95 460.6 292.1 458.75 335
L 458.75 357.15 355.25 357.15 355.25 328.35
Q 355.25 249.6 396.3 206.75 437.7 164.25 514.2 164.25 592.2 164.25 633.6 206 674.6 248.15 674.6 326.1 674.6 379.7 652.45 415.2 629.9 450.3 593.65 460.65 631.35 473.6 653.15 509.8 Z"/>
</g>
</defs>

<g transform="matrix( 1, 0, 0, 1, 0,0) ">
<use xlink:href="#Layer0_0_FILL"/>
</g>
</svg>
