
<svg xmlns="http://www.w3.org/2000/svg" version="1.1" xmlns:xlink="http://www.w3.org/1999/xlink" preserveAspectRatio="none" x="0px" y="0px" width="1000px" height="1000px" viewBox="0 0 1000 1000">
<defs>
<g id="Layer0_0_FILL">
<path fill="#ffffff" stroke="none" d="
M 971.85 495.15
Q 971.85 299.2 833.35 160.65 694.85 22.2 499 22.2 303.05 22.2 164.55 160.65 26.05 299.2 26.05 495.15 26.05 691 164.55 829.5 303.05 968 499 968 694.85 968 833.35 829.5 971.85 691 971.85 495.15
M 665.8 568.45
Q 665.8 639 652.5 687.45 639.2 735.85 604.45 763.95 569.7 792.05 506.15 792.05 418.9 792.05 385.3 745.45 351.65 698.9 351.65 607.25
L 454.05 607.25
Q 454.05 659.35 465.1 685.95 476.6 712.6 509.85 712.6 535 712.6 547.15 696.3 559 679.7 562.7 652.35 566 624.6 566 575.45 566 514.85 554.55 486 543.1 457.2 507.65 457.2 486.55 457.2 471.75 471.6 457 486 449.95 511.15
L 360.15 511.15 366.05 169.65 641.8 169.65 641.8 263.5 454.05 263.5 447.75 411
Q 460.7 396.95 485.1 388.05 509.1 379.2 537.95 379.2 603 379.2 634.4 429.1 665.8 478.6 665.8 568.45 Z"/>
</g>
</defs>

<g transform="matrix( 1, 0, 0, 1, 0,0) ">
<use xlink:href="#Layer0_0_FILL"/>
</g>
</svg>
