
<svg xmlns="http://www.w3.org/2000/svg" version="1.1" xmlns:xlink="http://www.w3.org/1999/xlink" preserveAspectRatio="none" x="0px" y="0px" width="1000px" height="1000px" viewBox="0 0 1000 1000">
<defs>
<g id="Layer0_0_FILL">
<path fill="#ffffff" stroke="none" d="
M 971.85 495.15
Q 971.85 299.2 833.35 160.65 694.85 22.2 499 22.2 303.05 22.2 164.55 160.65 26.05 299.2 26.05 495.15 26.05 691 164.55 829.5 303.05 968 499 968 694.85 968 833.35 829.5 971.85 691 971.85 495.15
M 652.35 318.35
L 652.35 328.35 551.45 328.35
Q 551.45 284.35 540.7 265.5 530.35 246.65 499.3 246.65 469 246.65 456.45 275.1 443.9 303.2 443.9 373.05
L 443.9 445.85
Q 455.35 427.4 477.5 417.8 500.05 407.8 529.65 407.8 659 407.8 659 584.1 659 793.3 499.3 793.3 418.4 793.3 378.45 737.85 338.9 682.8 338.9 591.85
L 338.9 376.75
Q 338.9 277.7 374.75 221.15 410.6 164.95 498.6 164.95 577.3 164.95 613.9 203.4 650.5 242.2 652.35 318.35
M 551.05 539
Q 548.5 516.1 536.65 501.7 524.85 487.25 499.3 487.25 481.2 487.25 466.45 497.25 451.65 506.85 443.9 519.8
L 443.9 615.9
Q 443.9 659.15 456.8 685.75 469.75 712 500.05 712 530.35 712 542.2 685 553.65 657.65 553.65 604.05 553.65 562.3 551.05 539 Z"/>
</g>
</defs>

<g transform="matrix( 1, 0, 0, 1, 0,0) ">
<use xlink:href="#Layer0_0_FILL"/>
</g>
</svg>
