
<svg xmlns="http://www.w3.org/2000/svg" version="1.1" xmlns:xlink="http://www.w3.org/1999/xlink" preserveAspectRatio="none" x="0px" y="0px" width="1000px" height="1000px" viewBox="0 0 1000 1000">
<defs>
<g id="Layer0_0_FILL">
<path fill="#ffffff" stroke="none" d="
M 971.85 495.15
Q 971.85 299.2 833.35 160.65 694.85 22.2 499 22.2 303.05 22.2 164.55 160.65 26.05 299.2 26.05 495.15 26.05 691 164.55 829.5 303.05 968 499 968 694.85 968 833.35 829.5 971.85 691 971.85 495.15
M 641 171.65
L 641 235.2 516.8 784.8 416.3 784.8 538.25 251.85 372.3 251.85 372.3 171.65 641 171.65 Z"/>
</g>
</defs>

<g transform="matrix( 1, 0, 0, 1, 0,0) ">
<use xlink:href="#Layer0_0_FILL"/>
</g>
</svg>
