
<svg xmlns="http://www.w3.org/2000/svg" version="1.1" xmlns:xlink="http://www.w3.org/1999/xlink" preserveAspectRatio="none" x="0px" y="0px" width="1000px" height="1000px" viewBox="0 0 1000 1000">
<defs>
<g id="Layer0_0_FILL">
<path fill="#ffffff" stroke="none" d="
M 971.85 495.15
Q 971.85 299.2 833.35 160.65 694.85 22.2 499 22.2 303.05 22.2 164.55 160.65 26.05 299.2 26.05 495.15 26.05 691 164.55 829.5 303.05 968 499 968 694.85 968 833.35 829.5 971.85 691 971.85 495.15
M 359.55 322.45
Q 359.55 248.15 398 206.35 436.8 164.95 510 164.95 584.25 164.95 621.95 206.35 660.05 248.15 660.05 322.45 660.05 418.5 596.45 461.75 669.65 503.15 669.65 612.2 669.65 793.3 510 793.3 350.3 793.3 350.3 610 350.3 502.4 423.85 461.75 394.3 441.05 376.95 406.7 359.55 372.3 359.55 322.45
M 555.05 536.8
Q 542.5 510.2 510 509.45 477.45 510.2 464.5 538.25 451.95 566.75 451.95 612.95 451.95 657.65 463.8 685.75 476 713.45 510 713.45 544.75 713.45 556.2 684.65 567.65 655.45 567.65 607.75 567.65 563.8 555.05 536.8
M 471.55 265.5
Q 458.6 286.55 458.6 322.45 458.6 420 510 420.75 559.9 420 559.9 323.15 559.9 286.55 548.05 265.5 535.85 244.45 510 244.45 484.5 244.45 471.55 265.5 Z"/>
</g>
</defs>

<g transform="matrix( 1, 0, 0, 1, 0,0) ">
<use xlink:href="#Layer0_0_FILL"/>
</g>
</svg>
