
<svg xmlns="http://www.w3.org/2000/svg" version="1.1" xmlns:xlink="http://www.w3.org/1999/xlink" preserveAspectRatio="none" x="0px" y="0px" width="1000px" height="1000px" viewBox="0 0 1000 1000">
<defs>
<g id="Layer0_0_FILL">
<path fill="#ffffff" stroke="none" d="
M 971.85 495.15
Q 971.85 299.2 833.35 160.65 694.85 22.2 499 22.2 303.05 22.2 164.55 160.65 26.05 299.2 26.05 495.15 26.05 691 164.55 829.5 303.05 968 499 968 694.85 968 833.35 829.5 971.85 691 971.85 495.15
M 667 360.35
L 667 577.65
Q 667 677.45 631.15 734.4 595.3 791.3 506.6 791.3 427.9 791.3 391.3 752.1 354.7 713.3 352.85 636.05
L 352.85 626.85 453.75 626.85
Q 453.75 670.8 464.45 689.65 475.55 708.5 507.35 708.5 536.9 708.5 548.75 680.4 560.55 651.95 560.55 582.1
L 560.55 509.65
Q 549.85 527.75 527.65 537.4 505.85 547.35 475.55 547.35 346.95 547.35 346.95 367.35 346.95 271.25 385 216.95 423.45 162.95 506.6 162.95 588.3 162.95 627.85 216.2 667 269.4 667 360.35
M 464.45 270.9
Q 453 298.25 453 351.45 453 392.85 455.6 416.15 458.2 439.05 470 453.5 481.85 467.9 507.35 467.9 541.35 467.9 560.55 434.65
L 560.55 339.3
Q 560.55 294.55 548.75 268.7 536.9 243.2 506.6 243.2 476.3 243.2 464.45 270.9 Z"/>
</g>
</defs>

<g transform="matrix( 1, 0, 0, 1, 0,0) ">
<use xlink:href="#Layer0_0_FILL"/>
</g>
</svg>
